<svg aria-hidden="true" style="position: absolute; width: 0; height: 0; overflow: hidden;" version="1.1" xmlns="http://www.w3.org/2000/svg" xmlns:xlink="http://www.w3.org/1999/xlink">
<defs>
<symbol id="icon-search" viewBox="0 0 20 20">
<path d="M12.9 14.32c-1.34 1.049-3.050 1.682-4.908 1.682-4.418 0-8-3.582-8-8s3.582-8 8-8c4.418 0 8 3.582 8 8 0 1.858-0.633 3.567-1.695 4.925l0.013-0.018 5.35 5.33-1.42 1.42-5.33-5.34zM8 14c3.314 0 6-2.686 6-6s-2.686-6-6-6v0c-3.314 0-6 2.686-6 6s2.686 6 6 6v0z"></path>
</symbol>

<symbol id="icon-bars" viewBox="0 0 24 28">
<path d="M24 21v2c0 0.547-0.453 1-1 1h-22c-0.547 0-1-0.453-1-1v-2c0-0.547 0.453-1 1-1h22c0.547 0 1 0.453 1 1zM24 13v2c0 0.547-0.453 1-1 1h-22c-0.547 0-1-0.453-1-1v-2c0-0.547 0.453-1 1-1h22c0.547 0 1 0.453 1 1zM24 5v2c0 0.547-0.453 1-1 1h-22c-0.547 0-1-0.453-1-1v-2c0-0.547 0.453-1 1-1h22c0.547 0 1 0.453 1 1z"></path>
</symbol>

<symbol id="icon-shopping-bag" viewBox="0 0 24 24">
<path d="M19 5h-14l1.5-2h11zM21.794 5.392l-2.994-3.992c-0.196-0.261-0.494-0.399-0.8-0.4h-12c-0.326 0-0.616 0.156-0.8 0.4l-2.994 3.992c-0.043 0.056-0.081 0.117-0.111 0.182-0.065 0.137-0.096 0.283-0.095 0.426v14c0 0.828 0.337 1.58 0.879 2.121s1.293 0.879 2.121 0.879h14c0.828 0 1.58-0.337 2.121-0.879s0.879-1.293 0.879-2.121v-14c0-0.219-0.071-0.422-0.189-0.585-0.004-0.005-0.007-0.010-0.011-0.015zM4 7h16v13c0 0.276-0.111 0.525-0.293 0.707s-0.431 0.293-0.707 0.293h-14c-0.276 0-0.525-0.111-0.707-0.293s-0.293-0.431-0.293-0.707zM15 10c0 0.829-0.335 1.577-0.879 2.121s-1.292 0.879-2.121 0.879-1.577-0.335-2.121-0.879-0.879-1.292-0.879-2.121c0-0.552-0.448-1-1-1s-1 0.448-1 1c0 1.38 0.561 2.632 1.464 3.536s2.156 1.464 3.536 1.464 2.632-0.561 3.536-1.464 1.464-2.156 1.464-3.536c0-0.552-0.448-1-1-1s-1 0.448-1 1z"></path>
</symbol>

<symbol id="icon-cross" viewBox="0 0 32 32">
<path d="M31.708 25.708c-0-0-0-0-0-0l-9.708-9.708 9.708-9.708c0-0 0-0 0-0 0.105-0.105 0.18-0.227 0.229-0.357 0.133-0.356 0.057-0.771-0.229-1.057l-4.586-4.586c-0.286-0.286-0.702-0.361-1.057-0.229-0.13 0.048-0.252 0.124-0.357 0.228 0 0-0 0-0 0l-9.708 9.708-9.708-9.708c-0-0-0-0-0-0-0.105-0.104-0.227-0.18-0.357-0.228-0.356-0.133-0.771-0.057-1.057 0.229l-4.586 4.586c-0.286 0.286-0.361 0.702-0.229 1.057 0.049 0.13 0.124 0.252 0.229 0.357 0 0 0 0 0 0l9.708 9.708-9.708 9.708c-0 0-0 0-0 0-0.104 0.105-0.18 0.227-0.229 0.357-0.133 0.355-0.057 0.771 0.229 1.057l4.586 4.586c0.286 0.286 0.702 0.361 1.057 0.229 0.13-0.049 0.252-0.124 0.357-0.229 0-0 0-0 0-0l9.708-9.708 9.708 9.708c0 0 0 0 0 0 0.105 0.105 0.227 0.18 0.357 0.229 0.356 0.133 0.771 0.057 1.057-0.229l4.586-4.586c0.286-0.286 0.362-0.702 0.229-1.057-0.049-0.13-0.124-0.252-0.229-0.357z"></path>
</symbol>

<symbol id="icon-mail" viewBox="0 0 24 24">
<path d="M3 7.921l8.427 5.899c0.34 0.235 0.795 0.246 1.147 0l8.426-5.899v10.079c0 0.272-0.11 0.521-0.295 0.705s-0.433 0.295-0.705 0.295h-16c-0.272 0-0.521-0.11-0.705-0.295s-0.295-0.433-0.295-0.705zM1 5.983c0 0.010 0 0.020 0 0.030v11.987c0 0.828 0.34 1.579 0.88 2.12s1.292 0.88 2.12 0.88h16c0.828 0 1.579-0.34 2.12-0.88s0.88-1.292 0.88-2.12v-11.988c0-0.010 0-0.020 0-0.030-0.005-0.821-0.343-1.565-0.88-2.102-0.541-0.54-1.292-0.88-2.12-0.88h-16c-0.828 0-1.579 0.34-2.12 0.88-0.537 0.537-0.875 1.281-0.88 2.103zM20.894 5.554l-8.894 6.225-8.894-6.225c0.048-0.096 0.112-0.183 0.188-0.259 0.185-0.185 0.434-0.295 0.706-0.295h16c0.272 0 0.521 0.11 0.705 0.295 0.076 0.076 0.14 0.164 0.188 0.259z"></path>
</symbol>

<symbol id="icon-arrow_forward_ios" viewBox="0 0 24 24">
<path d="M5.859 4.125l2.156-2.109 9.984 9.984-9.984 9.984-2.156-2.109 7.922-7.875z"></path>
</symbol>

<symbol id="icon-arrow_back_ios" viewBox="0 0 24 24">
<path d="M11.672 3.891l-8.109 8.109 8.109 8.109-1.781 1.781-9.891-9.891 9.891-9.891z"></path>
</symbol>

<symbol id="icon-play" viewBox="0 0 24 24">
<path d="M0 0h24v24H0z" fill="none"/><path d="M8 5v14l11-7z"/>
</symbol>

<symbol id="icon-leaderboard" viewBox="0 0 24 24">
<path d="M7.5,21H2V9h5.5V21z M14.75,3h-5.5v18h5.5V3z M22,11h-5.5v10H22V11z"/>
</symbol>

<symbol id="icon-facebook" viewBox="0 0 32 32">
<path d="M32 16c0-8.8-7.2-16-16-16s-16 7.2-16 16c0 8 5.9 14.6 13.5 15.8v-11.2h-4.1v-4.6h4.1v-3.5c0-4 2.4-6.2 6-6.2 1.8 0 3.6 0.3 3.6 0.3v3.9h-2c-2 0-2.6 1.2-2.6 2.5v3h4.4l-0.7 4.6h-3.7v11.2c7.6-1.2 13.5-7.8 13.5-15.8z"/>
</symbol>

<symbol id="icon-instagram" viewBox="0 0 32 32">
<path d="M16 2.881c4.275 0 4.781 0.019 6.462 0.094 1.563 0.069 2.406 0.331 2.969 0.55 0.744 0.288 1.281 0.638 1.837 1.194 0.563 0.563 0.906 1.094 1.2 1.838 0.219 0.563 0.481 1.412 0.55 2.969 0.075 1.688 0.094 2.194 0.094 6.463s-0.019 4.781-0.094 6.463c-0.069 1.563-0.331 2.406-0.55 2.969-0.288 0.744-0.637 1.281-1.194 1.837-0.563 0.563-1.094 0.906-1.837 1.2-0.563 0.219-1.413 0.481-2.969 0.55-1.688 0.075-2.194 0.094-6.463 0.094s-4.781-0.019-6.463-0.094c-1.563-0.069-2.406-0.331-2.969-0.55-0.744-0.288-1.281-0.637-1.838-1.194-0.563-0.563-0.906-1.094-1.2-1.837-0.219-0.563-0.481-1.413-0.55-2.969-0.075-1.688-0.094-2.194-0.094-6.463s0.019-4.781 0.094-6.463c0.069-1.563 0.331-2.406 0.55-2.969 0.288-0.744 0.638-1.281 1.194-1.838 0.563-0.563 1.094-0.906 1.838-1.2 0.563-0.219 1.412-0.481 2.969-0.55 1.681-0.075 2.188-0.094 6.463-0.094zM16 0c-4.344 0-4.887 0.019-6.594 0.094-1.7 0.075-2.869 0.35-3.881 0.744-1.056 0.412-1.95 0.956-2.837 1.85-0.894 0.888-1.438 1.781-1.85 2.831-0.394 1.019-0.669 2.181-0.744 3.881-0.075 1.713-0.094 2.256-0.094 6.6s0.019 4.887 0.094 6.594c0.075 1.7 0.35 2.869 0.744 3.881 0.413 1.056 0.956 1.95 1.85 2.837 0.887 0.887 1.781 1.438 2.831 1.844 1.019 0.394 2.181 0.669 3.881 0.744 1.706 0.075 2.25 0.094 6.594 0.094s4.888-0.019 6.594-0.094c1.7-0.075 2.869-0.35 3.881-0.744 1.050-0.406 1.944-0.956 2.831-1.844s1.438-1.781 1.844-2.831c0.394-1.019 0.669-2.181 0.744-3.881 0.075-1.706 0.094-2.25 0.094-6.594s-0.019-4.887-0.094-6.594c-0.075-1.7-0.35-2.869-0.744-3.881-0.394-1.063-0.938-1.956-1.831-2.844-0.887-0.887-1.781-1.438-2.831-1.844-1.019-0.394-2.181-0.669-3.881-0.744-1.712-0.081-2.256-0.1-6.6-0.1v0z"></path>
<path d="M16 7.781c-4.537 0-8.219 3.681-8.219 8.219s3.681 8.219 8.219 8.219 8.219-3.681 8.219-8.219c0-4.537-3.681-8.219-8.219-8.219zM16 21.331c-2.944 0-5.331-2.387-5.331-5.331s2.387-5.331 5.331-5.331c2.944 0 5.331 2.387 5.331 5.331s-2.387 5.331-5.331 5.331z"></path>
<path d="M26.462 7.456c0 1.060-0.859 1.919-1.919 1.919s-1.919-0.859-1.919-1.919c0-1.060 0.859-1.919 1.919-1.919s1.919 0.859 1.919 1.919z"></path>
</symbol>

<symbol id="icon-snapchat" viewBox="0 0 32 32">
<path d="M16.275 1.057c1.32 0 5.796 0.368 7.907 5.095 0.705 1.591 0.537 4.292 0.399 6.463l-0.004 0.080c-0.016 0.24-0.029 0.46-0.040 0.68 0.1 0.060 0.271 0.12 0.535 0.12 0.4-0.021 0.879-0.16 1.377-0.401 0.22-0.117 0.459-0.139 0.619-0.139 0.243 0 0.479 0.039 0.679 0.12 0.6 0.199 0.979 0.639 0.979 1.117 0.020 0.599-0.52 1.119-1.617 1.557-0.119 0.039-0.279 0.1-0.459 0.159-0.6 0.18-1.519 0.48-1.777 1.080-0.12 0.299-0.081 0.699 0.16 1.157l0.020 0.020c0.080 0.181 2.035 4.633 6.388 5.352 0.34 0.059 0.58 0.36 0.56 0.679 0 0.1-0.020 0.199-0.060 0.3-0.32 0.759-1.697 1.317-4.195 1.695-0.079 0.121-0.16 0.5-0.219 0.76-0.039 0.239-0.099 0.48-0.179 0.737-0.101 0.361-0.36 0.54-0.74 0.54h-0.040c-0.18 0-0.417-0.041-0.717-0.099-0.48-0.1-1.020-0.18-1.697-0.18-0.4 0-0.799 0.020-1.217 0.099-0.8 0.139-1.497 0.619-2.297 1.179-1.137 0.799-2.435 1.717-4.392 1.717-0.080 0-0.159-0.020-0.24-0.020h-0.199c-1.957 0-3.236-0.9-4.372-1.717-0.799-0.56-1.476-1.039-2.276-1.179-0.419-0.060-0.839-0.099-1.237-0.099-0.72 0-1.277 0.119-1.696 0.199-0.281 0.057-0.521 0.099-0.72 0.099-0.499 0-0.697-0.299-0.777-0.56-0.081-0.256-0.12-0.519-0.18-0.756-0.061-0.241-0.14-0.659-0.221-0.76-2.557-0.296-3.933-0.856-4.252-1.635-0.041-0.084-0.069-0.2-0.073-0.3-0.020-0.324 0.22-0.62 0.56-0.679 4.352-0.72 6.307-5.172 6.388-5.36l0.021-0.039c0.24-0.46 0.299-0.86 0.159-1.159-0.26-0.579-1.179-0.877-1.776-1.079-0.161-0.039-0.32-0.099-0.461-0.159-1.476-0.58-1.676-1.24-1.596-1.697 0.12-0.639 0.899-1.057 1.557-1.057 0.195 0 0.36 0.039 0.511 0.099 0.56 0.259 1.052 0.4 1.472 0.4 0.312 0 0.512-0.080 0.62-0.14l-0.061-0.759c-0.131-2.168-0.3-4.868 0.409-6.449 2.052-4.703 6.515-5.063 7.832-5.063l0.559-0.020z"></path>
</symbol>

<symbol id="icon-twitter" viewBox="0 0 32 32">
<path d="M32 7.075c-1.175 0.525-2.444 0.875-3.769 1.031 1.356-0.813 2.394-2.1 2.887-3.631-1.269 0.75-2.675 1.3-4.169 1.594-1.2-1.275-2.906-2.069-4.794-2.069-3.625 0-6.563 2.938-6.563 6.563 0 0.512 0.056 1.012 0.169 1.494-5.456-0.275-10.294-2.888-13.531-6.862-0.563 0.969-0.887 2.1-0.887 3.3 0 2.275 1.156 4.287 2.919 5.463-1.075-0.031-2.087-0.331-2.975-0.819 0 0.025 0 0.056 0 0.081 0 3.181 2.263 5.838 5.269 6.437-0.55 0.15-1.131 0.231-1.731 0.231-0.425 0-0.831-0.044-1.237-0.119 0.838 2.606 3.263 4.506 6.131 4.563-2.25 1.762-5.075 2.813-8.156 2.813-0.531 0-1.050-0.031-1.569-0.094 2.913 1.869 6.362 2.95 10.069 2.95 12.075 0 18.681-10.006 18.681-18.681 0-0.287-0.006-0.569-0.019-0.85 1.281-0.919 2.394-2.075 3.275-3.394z"></path>
</symbol>

<symbol id="icon-youtube" viewBox="0 0 32 32">
<path d="M31.681 9.6c0 0-0.313-2.206-1.275-3.175-1.219-1.275-2.581-1.281-3.206-1.356-4.475-0.325-11.194-0.325-11.194-0.325h-0.012c0 0-6.719 0-11.194 0.325-0.625 0.075-1.987 0.081-3.206 1.356-0.963 0.969-1.269 3.175-1.269 3.175s-0.319 2.588-0.319 5.181v2.425c0 2.587 0.319 5.181 0.319 5.181s0.313 2.206 1.269 3.175c1.219 1.275 2.819 1.231 3.531 1.369 2.563 0.244 10.881 0.319 10.881 0.319s6.725-0.012 11.2-0.331c0.625-0.075 1.988-0.081 3.206-1.356 0.962-0.969 1.275-3.175 1.275-3.175s0.319-2.587 0.319-5.181v-2.425c-0.006-2.588-0.325-5.181-0.325-5.181zM12.694 20.15v-8.994l8.644 4.513-8.644 4.481z"></path>
</symbol>

<symbol id="icon-help-circle" viewBox="0 0 24 24">
<path d="M23 12c0-3.037-1.232-5.789-3.222-7.778s-4.741-3.222-7.778-3.222-5.789 1.232-7.778 3.222-3.222 4.741-3.222 7.778 1.232 5.789 3.222 7.778 4.741 3.222 7.778 3.222 5.789-1.232 7.778-3.222 3.222-4.741 3.222-7.778zM21 12c0 2.486-1.006 4.734-2.636 6.364s-3.878 2.636-6.364 2.636-4.734-1.006-6.364-2.636-2.636-3.878-2.636-6.364 1.006-4.734 2.636-6.364 3.878-2.636 6.364-2.636 4.734 1.006 6.364 2.636 2.636 3.878 2.636 6.364zM10.033 9.332c0.183-0.521 0.559-0.918 1.022-1.14s1.007-0.267 1.528-0.083c0.458 0.161 0.819 0.47 1.050 0.859 0.183 0.307 0.284 0.665 0.286 1.037 0 0.155-0.039 0.309-0.117 0.464-0.080 0.16-0.203 0.325-0.368 0.49-0.709 0.709-1.831 1.092-1.831 1.092-0.524 0.175-0.807 0.741-0.632 1.265s0.741 0.807 1.265 0.632c0 0 1.544-0.506 2.613-1.575 0.279-0.279 0.545-0.614 0.743-1.010 0.2-0.4 0.328-0.858 0.328-1.369-0.004-0.731-0.204-1.437-0.567-2.049-0.463-0.778-1.19-1.402-2.105-1.724-1.042-0.366-2.135-0.275-3.057 0.167s-1.678 1.238-2.044 2.28c-0.184 0.521 0.090 1.092 0.611 1.275s1.092-0.091 1.275-0.611zM12 18c0.552 0 1-0.448 1-1s-0.448-1-1-1-1 0.448-1 1 0.448 1 1 1z"></path>
</symbol>

<symbol id="icon-archive" viewBox="0 0 24 24">
<path d="M4 9h16v11h-16zM1 2c-0.552 0-1 0.448-1 1v5c0 0.552 0.448 1 1 1h1v12c0 0.552 0.448 1 1 1h18c0.552 0 1-0.448 1-1v-12h1c0.552 0 1-0.448 1-1v-5c0-0.552-0.448-1-1-1zM2 4h20v3h-20zM10 13h4c0.552 0 1-0.448 1-1s-0.448-1-1-1h-4c-0.552 0-1 0.448-1 1s0.448 1 1 1z"></path>
</symbol>

<symbol id="icon-heart" viewBox="0 0 24 24">
<path d="M20.133 5.317c0.88 0.881 1.319 2.031 1.319 3.184s-0.44 2.303-1.319 3.182l-8.133 8.133-8.133-8.133c-0.879-0.879-1.318-2.029-1.318-3.183s0.439-2.304 1.318-3.183 2.029-1.318 3.183-1.318 2.304 0.439 3.183 1.318l1.060 1.060c0.391 0.391 1.024 0.391 1.414 0l1.062-1.062c0.879-0.879 2.029-1.318 3.182-1.317s2.303 0.44 3.182 1.319zM21.547 3.903c-1.269-1.269-2.934-1.904-4.596-1.905s-3.327 0.634-4.597 1.903l-0.354 0.355-0.353-0.353c-1.269-1.269-2.935-1.904-4.597-1.904s-3.328 0.635-4.597 1.904-1.904 2.935-1.904 4.597 0.635 3.328 1.904 4.597l8.84 8.84c0.391 0.391 1.024 0.391 1.414 0l8.84-8.84c1.269-1.269 1.904-2.934 1.905-4.596s-0.634-3.327-1.905-4.598z"></path>
</symbol>

<symbol id="icon-nomad-logo" width="70px" height="60px" viewBox="-10 0 100 50">
<g transform="translate(-133.911 -1693.874)"><g transform="translate(134.411 1711.87)"><path d="M149.825,1834.547h-.752l-1.375-2.176-9.991-14.554v14.354a1.4,1.4,0,0,0,1.427,1.6h.986v.776h-5.709v-.776h1.116a1.552,1.552,0,0,0,1.349-1.6v-13.929a1.115,1.115,0,0,0-1.22-1.175h-1.246v-.775h3.815l10.769,15.7v-13.8c0-.85-.623-1.125-1.3-1.125h-1.142v-.775h5.735v.775h-1.219a1.108,1.108,0,0,0-1.246,1.125Z" transform="translate(-134.411 -1816.117)" fill="#f2f7fb" stroke="#f8f1f1" stroke-width="1"/><path d="M260.307,1863.106c-4.334,0-5.891-3.551-5.891-6.227,0-4.8,3.555-6.5,5.891-6.5,2.958,0,5.735,2.126,5.735,6.5C266.042,1859.656,264.407,1863.106,260.307,1863.106Zm3.088-10.553a3.989,3.989,0,0,0-3.088-1.375,4.278,4.278,0,0,0-3.218,1.4,6.242,6.242,0,0,0-1.219,4.3c0,1.825.7,5.427,4.437,5.427,3.4,0,4.256-3.326,4.256-5.427A6.561,6.561,0,0,0,263.394,1852.553Z" transform="translate(-233.11 -1844.151)" fill="#f2f7fb" stroke="#f8f1f1" stroke-width="1"/><path d="M341.191,1854.867c0-.675-.779-.7-2-.7v-.775a8.044,8.044,0,0,0,3.322-.9v1.876c.934-1.125,1.583-1.876,3.3-1.876a3.038,3.038,0,0,1,2.543,1.125,3.492,3.492,0,0,1,.467.976,4.224,4.224,0,0,1,3.737-2.1c1.79,0,3.14,1.2,3.14,3.451v6.652a.865.865,0,0,0,.96.95h.908v.776h-5.034v-.776h1.012c.519,0,.83-.35.83-.95v-6.652c0-1.675-.857-2.676-2.154-2.676a3.535,3.535,0,0,0-3.166,2.375v6.977a.837.837,0,0,0,.96.925h.882v.776h-5.112v-.776h1.09a.888.888,0,0,0,.856-.925v-6.552c0-1.35-.493-2.8-2.258-2.8a3.191,3.191,0,0,0-2.958,2.6v6.777a.8.8,0,0,0,.856.9h.986v.776h-5.138v-.776H340c.441,0,1.194-.125,1.194-.9Z" transform="translate(-302.836 -1845.889)" fill="#f2f7fb" stroke="#f8f1f1" stroke-width="1"/><path d="M469.1,1862.244a6.63,6.63,0,0,1-4.074,1.3,3.012,3.012,0,0,1-1.868-5.5c1.194-.875,3.4-1.5,6.669-1.926v-1.65a3,3,0,0,0-3.14-2.751c-1.869,0-2.751,1.15-2.751,1.675v.3c.052.275.156,1-.752,1a.737.737,0,0,1-.8-.776c0-1.55,1.79-2.976,4.308-2.976,2.751,0,4.463,1.8,4.463,3.526v5.8c0,.925,0,2.5.545,2.5.233,0,.545-.475.882-1.375l.727.375c-.519,1.6-1.22,1.775-1.894,1.775-1.375,0-1.479-1.226-1.557-2.076Zm.727-5.326a14.893,14.893,0,0,0-5.527,1.726,2.144,2.144,0,0,0-1.142,1.9,2.341,2.341,0,0,0,2.387,2.226c1.635,0,4.022-1.125,4.282-2.951Z" transform="translate(-403.7 -1844.614)" fill="#f2f7fb" stroke="#f8f1f1" stroke-width="1"/><path d="M556.018,1831.586c0,1.05.571,1.375,1.246,1.375h1.064v.776h-3.633v-1.6a4.395,4.395,0,0,1-3.944,1.776c-3.062,0-5.164-2.526-5.164-6.277a5.675,5.675,0,0,1,5.605-5.727,4.767,4.767,0,0,1,3.5,1.376v-5.477c0-.625-.208-.7-2-.7v-.775a7.4,7.4,0,0,0,3.322-1.026Zm-1.323-6.9a4.112,4.112,0,0,0-3.5-1.9c-1.972,0-4.152,1.625-4.152,4.852,0,2.325,1.064,5.4,4.048,5.4a3.736,3.736,0,0,0,3.607-2.751Z" transform="translate(-472.586 -1815.306)" fill="#f2f7fb" stroke="#f8f1f1" stroke-width="1"/></g><g transform="translate(151.874 1695.374)"><g transform="translate(13.564 0.051)"><path d="M467.992,1753.614c.016.009.148.066.146.139,0,.124-.4.207-.447.22-.706.149-1.128-.544-1.922-.693-1.075-.2-1.513.842-2.456.546a2.289,2.289,0,0,1-1.123-1.05c-.48-.732-.341-1.127-.684-1.6-.274-.383-.844-.8-2.831-.817l-.492-2.063-1.022-4.283,2.96,2.625Z" transform="translate(-430.888 -1740.222)" fill="#f2f7fb" stroke="#f8f1f1" stroke-width="1"/><path d="M432.486,1750.591c.035.192.139.759-.023.83-.092.041-.234-.091-.293-.146-.391-.369-1.684-1.67-3.418-3.443l-.836-4.145,1.182-.536,2.424,1.538-.718.8c-.891.879-.88,1.179-.809,1.714C430.156,1748.416,432.206,1749.062,432.486,1750.591Z" transform="translate(-406.834 -1739.516)" fill="#f2f7fb" stroke="#f8f1f1" stroke-width="1"/><path d="M381.434,1734.37a.363.363,0,0,1-.136.545c-.223.158-.643-.157-1.453-.58s-1.21-.631-1.44-.586c-.5.1-.56.612-1.563,1.214-.324.2-.434.213-.524.208-.381-.016-.658-.446-1.2-1.306-.861-1.374-1.035-1.664-1.318-1.666-.337,0-.621.408-.817.69-.308.442-.188.833-.379.9-.217.081-.581-.3-.823-.659-.727-1.062-.368-1.866-.836-2.914a3.61,3.61,0,0,0-1.4-1.547l-1.271-5.981.012-.013,6.682,5.936Z" transform="translate(-357.784 -1722.676)" fill="#f2f7fb" stroke="#f8f1f1" stroke-width="1"/><path d="M313.333,1748.751l-2.528,2.711a.854.854,0,0,0,.051-.073l-.051.073-.006.007a.817.817,0,0,1-1.456-.545l-.168-3.038,1.2-1.162Z" transform="translate(-309.175 -1742.455)" fill="#f2f7fb" stroke="#f8f1f1" stroke-width="1"/></g><g transform="translate(0 0)"><line y1="2.711" x2="2.528" transform="translate(15.195 6.348)" fill="none" stroke="#f8f1f1" stroke-linejoin="round" stroke-width="3"/><path d="M318.357,1773.073a.818.818,0,0,0,.051-.073Z" transform="translate(-303.162 -1764.014)" fill="#f2f7fb" stroke="#f8f1f1" stroke-linejoin="round" stroke-width="3"/><path d="M309.175,1753.274l.168,3.038a.817.817,0,0,0,1.456.545l.006-.008" transform="translate(-295.611 -1747.79)" fill="#f2f7fb" stroke="#f8f1f1" stroke-linejoin="round" stroke-width="3"/><path d="M242.116,1765.94l-2.558-2.254-6.786,6.721c.324-.236,2.648-1.931,5.15-3.735a.577.577,0,0,1,.327-.121c.413-.009.507.876,1.285,1.691.157.165.217.2.286.213.313.063.633-.324,1.44-1.384C241.576,1766.656,241.86,1766.286,242.116,1765.94Z" transform="translate(-232.773 -1756.354)" fill="#f2f7fb" stroke="#f8f1f1" stroke-linejoin="round" stroke-width="3"/><line y1="4.103" x2="4.221" transform="translate(9.343 5.484)" fill="none" stroke="#f8f1f1" stroke-linejoin="round" stroke-width="3"/><path d="M326.361,1728.375l-6.682-5.937-.057-.051-6.289,6.348-2.963-2.027-1.2,1.163" transform="translate(-295.61 -1722.387)" fill="#f2f7fb" stroke="#f8f1f1" stroke-linejoin="round" stroke-width="3"/><path d="M431.521,1744.69l-2.424-1.538-1.182.536" transform="translate(-393.269 -1739.465)" fill="#f2f7fb" stroke="#f8f1f1" stroke-linejoin="round" stroke-width="3"/><path d="M457.161,1744.01l1.514,6.347c1.988.022,2.557.434,2.831.817.343.476.2.87.684,1.6a2.289,2.289,0,0,0,1.123,1.05c.943.3,1.381-.748,2.456-.546.794.15,1.216.842,1.922.693.051-.013.444-.1.447-.22,0-.074-.13-.131-.146-.139Z" transform="translate(-417.323 -1740.171)" fill="#f2f7fb" stroke="#f8f1f1" stroke-linejoin="round" stroke-width="3"/><line x1="1.586" y2="1.386" transform="translate(38.252 3.839)" fill="none" stroke="#f8f1f1" stroke-linejoin="round" stroke-width="3"/><path d="M427.915,1746.171l.836,4.145c1.734,1.773,3.027,3.073,3.418,3.442.059.055.2.188.293.146.163-.072.059-.639.023-.831-.28-1.529-2.33-2.175-2.491-3.389-.072-.535-.082-.835.809-1.714l.718-.8" transform="translate(-393.269 -1741.948)" fill="#f2f7fb" stroke="#f8f1f1" stroke-linejoin="round" stroke-width="3"/><line x1="3.895" y2="1.765" transform="translate(30.751 4.223)" fill="none" stroke="#f8f1f1" stroke-linejoin="round" stroke-width="3"/><path d="M368.277,1722.75l1.271,5.982a3.609,3.609,0,0,1,1.4,1.547c.469,1.048.11,1.853.836,2.915.242.354.606.74.823.659.192-.069.072-.46.379-.9.2-.282.48-.693.817-.69.283,0,.457.292,1.318,1.665.539.86.816,1.29,1.2,1.307.091,0,.2-.013.524-.208,1-.6,1.059-1.113,1.563-1.214.23-.045.634.164,1.44.586s1.23.738,1.453.58a.363.363,0,0,0,.136-.545l-6.464-5.758" transform="translate(-344.22 -1722.685)" fill="#f2f7fb" stroke="#f8f1f1" stroke-linejoin="round" stroke-width="3"/></g></g></g>
</symbol>

<symbol id="icon-cart" viewBox="0 0 36.536 36.536">
<g transform="translate(1.5 1.5)"><path d="M15.253,31.626A1.626,1.626,0,1,1,13.626,30,1.626,1.626,0,0,1,15.253,31.626Z" transform="translate(-1.401 0.283)" fill="none" stroke-linecap="round" stroke-linejoin="round" stroke-width="3"/><path d="M31.753,31.626A1.626,1.626,0,1,1,30.126,30,1.626,1.626,0,0,1,31.753,31.626Z" transform="translate(-1.47 0.283)" fill="none"  stroke-linecap="round" stroke-linejoin="round" stroke-width="3"/><path d="M1.5,1.5H7.6l4.085,21.225a3.079,3.079,0,0,0,3.049,2.552H29.548A3.079,3.079,0,0,0,32.6,22.725l2.439-13.3H9.122" transform="translate(-1.5 -1.5)" fill="none" stroke-linecap="round" stroke-linejoin="round" stroke-width="3"/></g>
</symbol>
<symbol id="icon-globe" viewBox="0 0 24 24"> 
<path d="M16.951 11c-0.214-2.69-1.102-5.353-2.674-7.71 1.57 0.409 2.973 1.232 4.087 2.346 1.408 1.408 2.351 3.278 2.581 5.364zM14.279 20.709c1.483-2.226 2.437-4.853 2.669-7.709h3.997c-0.23 2.086-1.173 3.956-2.581 5.364-1.113 1.113-2.516 1.936-4.085 2.345zM7.049 13c0.214 2.69 1.102 5.353 2.674 7.71-1.57-0.409-2.973-1.232-4.087-2.346-1.408-1.408-2.351-3.278-2.581-5.364zM9.721 3.291c-1.482 2.226-2.436 4.853-2.669 7.709h-3.997c0.23-2.086 1.173-3.956 2.581-5.364 1.114-1.113 2.516-1.936 4.085-2.345zM12.004 1c0 0 0 0 0 0-3.044 0.001-5.794 1.233-7.782 3.222-1.99 1.989-3.222 4.741-3.222 7.778s1.232 5.789 3.222 7.778c1.988 1.989 4.738 3.221 7.774 3.222 0 0 0 0 0 0 3.044-0.001 5.793-1.233 7.782-3.222 1.99-1.989 3.222-4.741 3.222-7.778s-1.232-5.789-3.222-7.778c-1.988-1.989-4.738-3.221-7.774-3.222zM14.946 13c-0.252 2.788-1.316 5.36-2.945 7.451-1.729-2.221-2.706-4.818-2.945-7.451zM11.999 3.549c1.729 2.221 2.706 4.818 2.945 7.451h-5.89c0.252-2.788 1.316-5.36 2.945-7.451z"></path>
</symbol>   

<symbol id="icon-message" viewBox="0 0 24 24">
<path d="M18 8.016v-2.016h-12v2.016h12zM18 11.016v-2.016h-12v2.016h12zM18 14.016v-2.016h-12v2.016h12zM20.016 2.016q0.797 0 1.383 0.586t0.586 1.383v12q0 0.797-0.586 1.406t-1.383 0.609h-14.016l-3.984 3.984v-18q0-0.797 0.586-1.383t1.383-0.586h16.031z"></path>
</symbol>

<symbol id="icon-star" viewBox="0 0 26 28">
<path d="M26 10.109c0 0.281-0.203 0.547-0.406 0.75l-5.672 5.531 1.344 7.812c0.016 0.109 0.016 0.203 0.016 0.313 0 0.406-0.187 0.781-0.641 0.781-0.219 0-0.438-0.078-0.625-0.187l-7.016-3.687-7.016 3.687c-0.203 0.109-0.406 0.187-0.625 0.187-0.453 0-0.656-0.375-0.656-0.781 0-0.109 0.016-0.203 0.031-0.313l1.344-7.812-5.688-5.531c-0.187-0.203-0.391-0.469-0.391-0.75 0-0.469 0.484-0.656 0.875-0.719l7.844-1.141 3.516-7.109c0.141-0.297 0.406-0.641 0.766-0.641s0.625 0.344 0.766 0.641l3.516 7.109 7.844 1.141c0.375 0.063 0.875 0.25 0.875 0.719z"></path>
</symbol>

<symbol id="icon-homepage" width="40px" height="40px" viewBox="2 2 24 24">
<path d="M12 5.69l5 4.5V18h-2v-6H9v6H7v-7.81l5-4.5M12 3L2 12h3v8h6v-6h2v6h6v-8h3L12 3z"/>
</symbol>

<symbol id="icon-user" width="40px" height="40px" viewBox="2 2 24 24">
<path d="M12 5.9c1.16 0 2.1.94 2.1 2.1s-.94 2.1-2.1 2.1S9.9 9.16 9.9 8s.94-2.1 2.1-2.1m0 9c2.97 0 6.1 1.46 6.1 2.1v1.1H5.9V17c0-.64 3.13-2.1 6.1-2.1M12 4C9.79 4 8 5.79 8 8s1.79 4 4 4 4-1.79 4-4-1.79-4-4-4zm0 9c-2.67 0-8 1.34-8 4v3h16v-3c0-2.66-5.33-4-8-4z"/>
</symbol>

<symbol id="icon-nomad-logo-dark" width="70px" height="60px" viewBox="-10 0 100 50">
<g transform="translate(-133.911 -1693.874)"><g transform="translate(134.411 1711.87)"><path d="M149.825,1834.547h-.752l-1.375-2.176-9.991-14.554v14.354a1.4,1.4,0,0,0,1.427,1.6h.986v.776h-5.709v-.776h1.116a1.552,1.552,0,0,0,1.349-1.6v-13.929a1.115,1.115,0,0,0-1.22-1.175h-1.246v-.775h3.815l10.769,15.7v-13.8c0-.85-.623-1.125-1.3-1.125h-1.142v-.775h5.735v.775h-1.219a1.108,1.108,0,0,0-1.246,1.125Z" transform="translate(-134.411 -1816.117)" fill="#123132" stroke="#123132" stroke-width="1"/><path d="M260.307,1863.106c-4.334,0-5.891-3.551-5.891-6.227,0-4.8,3.555-6.5,5.891-6.5,2.958,0,5.735,2.126,5.735,6.5C266.042,1859.656,264.407,1863.106,260.307,1863.106Zm3.088-10.553a3.989,3.989,0,0,0-3.088-1.375,4.278,4.278,0,0,0-3.218,1.4,6.242,6.242,0,0,0-1.219,4.3c0,1.825.7,5.427,4.437,5.427,3.4,0,4.256-3.326,4.256-5.427A6.561,6.561,0,0,0,263.394,1852.553Z" transform="translate(-233.11 -1844.151)" fill="#123132" stroke="#123132" stroke-width="1"/><path d="M341.191,1854.867c0-.675-.779-.7-2-.7v-.775a8.044,8.044,0,0,0,3.322-.9v1.876c.934-1.125,1.583-1.876,3.3-1.876a3.038,3.038,0,0,1,2.543,1.125,3.492,3.492,0,0,1,.467.976,4.224,4.224,0,0,1,3.737-2.1c1.79,0,3.14,1.2,3.14,3.451v6.652a.865.865,0,0,0,.96.95h.908v.776h-5.034v-.776h1.012c.519,0,.83-.35.83-.95v-6.652c0-1.675-.857-2.676-2.154-2.676a3.535,3.535,0,0,0-3.166,2.375v6.977a.837.837,0,0,0,.96.925h.882v.776h-5.112v-.776h1.09a.888.888,0,0,0,.856-.925v-6.552c0-1.35-.493-2.8-2.258-2.8a3.191,3.191,0,0,0-2.958,2.6v6.777a.8.8,0,0,0,.856.9h.986v.776h-5.138v-.776H340c.441,0,1.194-.125,1.194-.9Z" transform="translate(-302.836 -1845.889)" fill="#123132" stroke="#123132" stroke-width="1"/><path d="M469.1,1862.244a6.63,6.63,0,0,1-4.074,1.3,3.012,3.012,0,0,1-1.868-5.5c1.194-.875,3.4-1.5,6.669-1.926v-1.65a3,3,0,0,0-3.14-2.751c-1.869,0-2.751,1.15-2.751,1.675v.3c.052.275.156,1-.752,1a.737.737,0,0,1-.8-.776c0-1.55,1.79-2.976,4.308-2.976,2.751,0,4.463,1.8,4.463,3.526v5.8c0,.925,0,2.5.545,2.5.233,0,.545-.475.882-1.375l.727.375c-.519,1.6-1.22,1.775-1.894,1.775-1.375,0-1.479-1.226-1.557-2.076Zm.727-5.326a14.893,14.893,0,0,0-5.527,1.726,2.144,2.144,0,0,0-1.142,1.9,2.341,2.341,0,0,0,2.387,2.226c1.635,0,4.022-1.125,4.282-2.951Z" transform="translate(-403.7 -1844.614)" fill="#123132" stroke="#123132" stroke-width="1"/><path d="M556.018,1831.586c0,1.05.571,1.375,1.246,1.375h1.064v.776h-3.633v-1.6a4.395,4.395,0,0,1-3.944,1.776c-3.062,0-5.164-2.526-5.164-6.277a5.675,5.675,0,0,1,5.605-5.727,4.767,4.767,0,0,1,3.5,1.376v-5.477c0-.625-.208-.7-2-.7v-.775a7.4,7.4,0,0,0,3.322-1.026Zm-1.323-6.9a4.112,4.112,0,0,0-3.5-1.9c-1.972,0-4.152,1.625-4.152,4.852,0,2.325,1.064,5.4,4.048,5.4a3.736,3.736,0,0,0,3.607-2.751Z" transform="translate(-472.586 -1815.306)" fill="#123132" stroke="#123132" stroke-width="1"/></g><g transform="translate(151.874 1695.374)"><g transform="translate(13.564 0.051)"><path d="M467.992,1753.614c.016.009.148.066.146.139,0,.124-.4.207-.447.22-.706.149-1.128-.544-1.922-.693-1.075-.2-1.513.842-2.456.546a2.289,2.289,0,0,1-1.123-1.05c-.48-.732-.341-1.127-.684-1.6-.274-.383-.844-.8-2.831-.817l-.492-2.063-1.022-4.283,2.96,2.625Z" transform="translate(-430.888 -1740.222)" fill="#123132" stroke="#123132" stroke-width="1"/><path d="M432.486,1750.591c.035.192.139.759-.023.83-.092.041-.234-.091-.293-.146-.391-.369-1.684-1.67-3.418-3.443l-.836-4.145,1.182-.536,2.424,1.538-.718.8c-.891.879-.88,1.179-.809,1.714C430.156,1748.416,432.206,1749.062,432.486,1750.591Z" transform="translate(-406.834 -1739.516)" fill="#123132" stroke="#123132" stroke-width="1"/><path d="M381.434,1734.37a.363.363,0,0,1-.136.545c-.223.158-.643-.157-1.453-.58s-1.21-.631-1.44-.586c-.5.1-.56.612-1.563,1.214-.324.2-.434.213-.524.208-.381-.016-.658-.446-1.2-1.306-.861-1.374-1.035-1.664-1.318-1.666-.337,0-.621.408-.817.69-.308.442-.188.833-.379.9-.217.081-.581-.3-.823-.659-.727-1.062-.368-1.866-.836-2.914a3.61,3.61,0,0,0-1.4-1.547l-1.271-5.981.012-.013,6.682,5.936Z" transform="translate(-357.784 -1722.676)" fill="#123132" stroke="#123132" stroke-width="1"/><path d="M313.333,1748.751l-2.528,2.711a.854.854,0,0,0,.051-.073l-.051.073-.006.007a.817.817,0,0,1-1.456-.545l-.168-3.038,1.2-1.162Z" transform="translate(-309.175 -1742.455)" fill="#123132" stroke="#123132" stroke-width="1"/></g><g transform="translate(0 0)"><line y1="2.711" x2="2.528" transform="translate(15.195 6.348)" fill="none" stroke="#123132" stroke-linejoin="round" stroke-width="3"/><path d="M318.357,1773.073a.818.818,0,0,0,.051-.073Z" transform="translate(-303.162 -1764.014)" fill="#123132" stroke="#123132" stroke-linejoin="round" stroke-width="3"/><path d="M309.175,1753.274l.168,3.038a.817.817,0,0,0,1.456.545l.006-.008" transform="translate(-295.611 -1747.79)" fill="#123132" stroke="#123132" stroke-linejoin="round" stroke-width="3"/><path d="M242.116,1765.94l-2.558-2.254-6.786,6.721c.324-.236,2.648-1.931,5.15-3.735a.577.577,0,0,1,.327-.121c.413-.009.507.876,1.285,1.691.157.165.217.2.286.213.313.063.633-.324,1.44-1.384C241.576,1766.656,241.86,1766.286,242.116,1765.94Z" transform="translate(-232.773 -1756.354)" fill="#123132" stroke="#123132" stroke-linejoin="round" stroke-width="3"/><line y1="4.103" x2="4.221" transform="translate(9.343 5.484)" fill="none" stroke="#123132" stroke-linejoin="round" stroke-width="3"/><path d="M326.361,1728.375l-6.682-5.937-.057-.051-6.289,6.348-2.963-2.027-1.2,1.163" transform="translate(-295.61 -1722.387)" fill="#123132" stroke="#123132" stroke-linejoin="round" stroke-width="3"/><path d="M431.521,1744.69l-2.424-1.538-1.182.536" transform="translate(-393.269 -1739.465)" fill="#123132" stroke="#123132" stroke-linejoin="round" stroke-width="3"/><path d="M457.161,1744.01l1.514,6.347c1.988.022,2.557.434,2.831.817.343.476.2.87.684,1.6a2.289,2.289,0,0,0,1.123,1.05c.943.3,1.381-.748,2.456-.546.794.15,1.216.842,1.922.693.051-.013.444-.1.447-.22,0-.074-.13-.131-.146-.139Z" transform="translate(-417.323 -1740.171)" fill="#123132" stroke="#123132" stroke-linejoin="round" stroke-width="3"/><line x1="1.586" y2="1.386" transform="translate(38.252 3.839)" fill="none" stroke="#123132" stroke-linejoin="round" stroke-width="3"/><path d="M427.915,1746.171l.836,4.145c1.734,1.773,3.027,3.073,3.418,3.442.059.055.2.188.293.146.163-.072.059-.639.023-.831-.28-1.529-2.33-2.175-2.491-3.389-.072-.535-.082-.835.809-1.714l.718-.8" transform="translate(-393.269 -1741.948)" fill="#123132" stroke="#123132" stroke-linejoin="round" stroke-width="3"/><line x1="3.895" y2="1.765" transform="translate(30.751 4.223)" fill="none" stroke="#123132" stroke-linejoin="round" stroke-width="3"/><path d="M368.277,1722.75l1.271,5.982a3.609,3.609,0,0,1,1.4,1.547c.469,1.048.11,1.853.836,2.915.242.354.606.74.823.659.192-.069.072-.46.379-.9.2-.282.48-.693.817-.69.283,0,.457.292,1.318,1.665.539.86.816,1.29,1.2,1.307.091,0,.2-.013.524-.208,1-.6,1.059-1.113,1.563-1.214.23-.045.634.164,1.44.586s1.23.738,1.453.58a.363.363,0,0,0,.136-.545l-6.464-5.758" transform="translate(-344.22 -1722.685)" fill="#123132" stroke="#123132" stroke-linejoin="round" stroke-width="3"/></g></g></g>
</symbol>

<symbol id="icon-aboutus" viewBox="0 0 47.94 57.61">
<g id="圖層_2" data-name="圖層 2"><g id="圖層_1-2" data-name="圖層 1"><g id="Group_391" data-name="Group 391"><g id="Group_390" data-name="Group 390"><g class="cls-2"><g id="Group_389" data-name="Group 389"><path id="Path_2998" data-name="Path 2998" class="cls-3" d="M24,57.6A24,24,0,0,0,26.88,9.78V8.63a4.8,4.8,0,1,0-6.72-1,4.6,4.6,0,0,0,1,1V9.78A24,24,0,0,0,24,57.6ZM24,1.92a2.88,2.88,0,0,1,2.49,4.33A2.37,2.37,0,0,0,26,5.66a2.85,2.85,0,0,0-4.52.59A2.88,2.88,0,0,1,24,1.92ZM23,7.68a1,1,0,0,1,1-1,1,1,0,0,1,1,1V9.62l-1,0-1,0Zm1,3.84A22.08,22.08,0,1,1,1.92,33.6h0A22.08,22.08,0,0,1,24,11.52Z" transform="translate(-0.03 0.01)"/></g></g></g><path id="Path_2999" data-name="Path 2999" class="cls-3" d="M24,53.76A20.16,20.16,0,1,0,3.84,33.6,20.16,20.16,0,0,0,24,53.76Zm0-38.4A18.24,18.24,0,1,1,5.76,33.6h0A18.24,18.24,0,0,1,24,15.36Z" transform="translate(-0.03 0.01)"/><path id="Path_3000" data-name="Path 3000" class="cls-3" d="M19,40.18l-3.22,5.59a1,1,0,1,0,1.66,1l3.17-5.5,1.86,7.5a1.59,1.59,0,0,0,3.08,0l1.86-7.49,3.17,5.5a1,1,0,1,0,1.66-1h0L29,40.11,36.69,42a1.5,1.5,0,0,0,.37,0,1.59,1.59,0,0,0,1.57-1.59,1.62,1.62,0,0,0-.53-1.17l-3.46-3.09c.18,0,.36-.06.54-.11l4.2-1.2a1.34,1.34,0,0,0,.9-1.65,1.33,1.33,0,0,0-.91-.9l-4.2-1.2c-.21-.06-.42-.09-.63-.14l3.52-3.2a1.55,1.55,0,0,0,.33-1.9,1.58,1.58,0,0,0-1.79-.8L29.15,27l3.35-5.36a1,1,0,1,0-1.61-1.05l0,0L27.44,26.1l-1.9-7.63a1.58,1.58,0,0,0-3.07,0l-1.9,7.62-3.43-5.49a1,1,0,0,0-1.32-.33,1,1,0,0,0-.34,1.31l0,0,3.4,5.44-7.58-1.86A1.58,1.58,0,0,0,9.9,27.93L13.36,31l-.53.1-4.2,1.2a1.33,1.33,0,0,0,0,2.56l4.19,1.2c.21.06.43.09.64.13l-3.53,3.2a1.59,1.59,0,0,0-.09,2.24,1.62,1.62,0,0,0,1.17.51,1.58,1.58,0,0,0,.38,0Zm5-12.34a5.79,5.79,0,0,1,5,2.88H26.51a3.76,3.76,0,0,0-5,0H19a5.79,5.79,0,0,1,5-2.88Zm1.92,5.76A1.92,1.92,0,1,1,24,31.68a1.92,1.92,0,0,1,1.92,1.92Zm-4.43,2.88a3.76,3.76,0,0,0,5,0H29a5.72,5.72,0,0,1-9.94,0ZM24,47l-1.45-5.83a6.75,6.75,0,0,0,2.9,0Zm6-8.57a7.56,7.56,0,0,0,1.11-1.9h1L35.8,39.8Zm6.87-4.78-2.2.63a8.78,8.78,0,0,1-2.39.33H27.7a3.48,3.48,0,0,0,0-1.92h4.56a8.66,8.66,0,0,1,2.38.33ZM32,30.72H31.1a7.6,7.6,0,0,0-1.17-1.95l5.83-1.49ZM24,20.26l1.45,5.82a6.75,6.75,0,0,0-2.9,0Zm-6,8.57a7.55,7.55,0,0,0-1.12,1.9h-1L12.2,27.4ZM11.15,33.6l2.2-.63a8.76,8.76,0,0,1,2.38-.33H20.3a3.48,3.48,0,0,0,0,1.92H15.73a8.64,8.64,0,0,1-2.37-.33ZM16,36.48h.87a7.46,7.46,0,0,0,1.16,2l-5.82,1.48Z" transform="translate(-0.03 0.01)"/></g></g></g>
</symbol>

<symbol id="icon-achievement" viewBox="0 0 38.71 50.48">
<g id="圖層_1-2" data-name="圖層 1"><g id="Group_388" data-name="Group 388"><g id="Group_387" data-name="Group 387"><g class="cls-2"><g id="Group_386" data-name="Group 386"><path id="Path_2995" data-name="Path 2995" class="cls-3" d="M19.46,32.81A13.46,13.46,0,1,0,6,19.35,13.46,13.46,0,0,0,19.46,32.81Zm0-1.68a11.75,11.75,0,0,1-7.29-2.54l18.32-5.16A11.79,11.79,0,0,1,19.46,31.13ZM16.93,12.62a.85.85,0,1,1,.84.84.85.85,0,0,1-.84-.84Zm4.8,11.53-.46-1.85a2.6,2.6,0,0,0-1.05-1.49l-1.61-1.07V17.82l.4.27a2.52,2.52,0,0,0,2.53.15l.9-.45,1.07,5.86Zm-4.8-9v4.2H15.25a.84.84,0,0,1-.84-.84h0V16a.84.84,0,0,1,.84-.84h1.68Zm1.69,8v-1.4l.67.44a1,1,0,0,1,.36.5l.47,1.89-2.24.63.47-.94a2.47,2.47,0,0,0,.27-1.13Zm.84-15.59A11.75,11.75,0,0,1,31.24,19.29,12.08,12.08,0,0,1,31,21.54l-5.89,1.65L24,17h0a.83.83,0,0,0,.38-1.12h0a.84.84,0,0,0-.69-.45L23.65,15a.84.84,0,0,0-1.66.24.13.13,0,0,0,0,.06l.14.77-1.34.67a.82.82,0,0,1-.84,0l-1.34-.89V15a2.54,2.54,0,1,0-3.23-1.57v.05h-.15A2.52,2.52,0,0,0,12.73,16h0v2.52A2.52,2.52,0,0,0,15.25,21h1.68v2.13a.8.8,0,0,1-.08.37l-1.16,2.31-4.95,1.4A11.76,11.76,0,0,1,19.46,7.58Z" transform="translate(-0.1 0)"/><path id="Path_2996" data-name="Path 2996" class="cls-3" d="M1.45,16.35A4,4,0,0,0,1.12,22q.15.16.33.33a5.39,5.39,0,0,1,.93,1.57,5.77,5.77,0,0,1,0,1.9,3.93,3.93,0,0,0,2.49,5,4.05,4.05,0,0,0,.47.12A5.48,5.48,0,0,1,7,31.84a2.84,2.84,0,0,1,.41.57L3.53,46.06a1.68,1.68,0,0,0,1.94,2.1l3.79-.72L12.11,50a1.68,1.68,0,0,0,2.38-.11,1.64,1.64,0,0,0,.38-.68l3.07-10.94a3.12,3.12,0,0,0,3,0L24,49.24a1.67,1.67,0,0,0,2.07,1.17,1.62,1.62,0,0,0,.68-.37l2.85-2.6,3.8.72a1.68,1.68,0,0,0,2-1.34,1.63,1.63,0,0,0,0-.76L31.54,32.42a2.58,2.58,0,0,1,.41-.57,5.48,5.48,0,0,1,1.63-.92,4,4,0,0,0,3.09-4.64c0-.16-.08-.31-.13-.46a5.83,5.83,0,0,1,0-1.91,5.66,5.66,0,0,1,.93-1.57,4,4,0,0,0,.33-5.68,3.43,3.43,0,0,0-.33-.33,5.52,5.52,0,0,1-.93-1.57,5.51,5.51,0,0,1,0-1.9,3.94,3.94,0,0,0-2.5-5,3.9,3.9,0,0,0-.46-.12A3.49,3.49,0,0,1,31,5.23,3.94,3.94,0,0,0,26.4,2.14a4.12,4.12,0,0,0-.47.13,5.77,5.77,0,0,1-1.9,0,5.66,5.66,0,0,1-1.57-.93A4,4,0,0,0,16.78,1a2.57,2.57,0,0,0-.33.33,5.66,5.66,0,0,1-1.57.93,5.77,5.77,0,0,1-1.9,0A3.92,3.92,0,0,0,8,4.76a3.59,3.59,0,0,0-.12.47A3.52,3.52,0,0,1,5.33,7.78a3.93,3.93,0,0,0-3.08,4.63,3.59,3.59,0,0,0,.12.47,5.77,5.77,0,0,1,0,1.9,5.42,5.42,0,0,1-.94,1.57ZM13.25,48.8l-2.78-2.52.88-3.14a.84.84,0,0,0-1.62-.45l-.88,3.13-3.7.7L8.47,34.71a3.65,3.65,0,0,0,1.3,1.4,3.44,3.44,0,0,0,1.69.42l-.79,2.79a.85.85,0,0,0,.58,1,.91.91,0,0,0,.23,0,.84.84,0,0,0,.81-.61l1-3.37a5,5,0,0,1,1.63,0,5.61,5.61,0,0,1,1.58.94h0Zm16.81-3-.88-3.14a.84.84,0,0,0-1.06-.54.83.83,0,0,0-.56,1l.88,3.13L25.66,48.8,22.45,37.36h0A5.66,5.66,0,0,1,24,36.42a4.75,4.75,0,0,1,1.64,0l.95,3.36a.84.84,0,1,0,1.63-.4.43.43,0,0,0,0,0l-.79-2.79a3.56,3.56,0,0,0,1.69-.42,3.67,3.67,0,0,0,1.3-1.41l3.32,11.82ZM2.81,17.35A6.74,6.74,0,0,0,4,15.21a7.11,7.11,0,0,0,0-2.52A2.4,2.4,0,0,1,5.25,9.52,2.2,2.2,0,0,1,6,9.32,5,5,0,0,0,9.42,5.9,2.4,2.4,0,0,1,12,3.74a2.45,2.45,0,0,1,.75.2,7.11,7.11,0,0,0,2.52,0,6.74,6.74,0,0,0,2.14-1.2,2.47,2.47,0,0,1,3.46-.55,2.39,2.39,0,0,1,.55.55,6.69,6.69,0,0,0,2.13,1.2,7.17,7.17,0,0,0,2.53,0,2.4,2.4,0,0,1,3.17,1.21,2.77,2.77,0,0,1,.2.75A5,5,0,0,0,32.9,9.32a2.4,2.4,0,0,1,2.16,2.62,2.45,2.45,0,0,1-.2.75,7.17,7.17,0,0,0,0,2.53,7,7,0,0,0,1.2,2.13,2.47,2.47,0,0,1,.55,3.46,2.21,2.21,0,0,1-.55.55,6.89,6.89,0,0,0-1.2,2.13,7.17,7.17,0,0,0,0,2.53,2.4,2.4,0,0,1-2,3.37,5,5,0,0,0-3.41,3.42A2.41,2.41,0,0,1,26.87,35a2.14,2.14,0,0,1-.75-.2,6.94,6.94,0,0,0-2.53,0A6.51,6.51,0,0,0,21.46,36a2.48,2.48,0,0,1-3.47.54,2.56,2.56,0,0,1-.55-.54,6.51,6.51,0,0,0-2.13-1.2,4.34,4.34,0,0,0-1.14-.14,12.81,12.81,0,0,0-1.38.1,2.4,2.4,0,0,1-3.17-1.21,2.14,2.14,0,0,1-.2-.75A5,5,0,0,0,6,29.39a2.4,2.4,0,0,1-2.15-2.63,2.47,2.47,0,0,1,.2-.74A6.89,6.89,0,0,0,4,23.5a6.55,6.55,0,0,0-1.2-2.14,2.48,2.48,0,0,1-.55-3.46,2.61,2.61,0,0,1,.55-.55Z" transform="translate(-0.1 0)"/></g></g></g><path id="Path_2997" data-name="Path 2997" class="cls-3" d="M24.08,27l-4,1.13a.84.84,0,0,0,.23,1.65.91.91,0,0,0,.23,0l4-1.13A.84.84,0,0,0,24.08,27Z" transform="translate(-0.1 0)"/></g></g></g>
</symbol>

<symbol id="icon-blog" viewBox="0 0 38.91 38.91">
<g id="圖層_2" data-name="圖層 2"><g id="圖層_1-2" data-name="圖層 1"><g id="browser-user_interface-interface-internet-content" data-name="browser-user interface-interface-internet-content"><path id="Path_3008" data-name="Path 3008" class="cls-1" d="M38.26,0H.65A.65.65,0,0,0,0,.65H0V38.26a.65.65,0,0,0,.65.65H38.27a.65.65,0,0,0,.64-.65V.65A.65.65,0,0,0,38.26,0Zm-.64,37.62H1.3V6.48H37.62Zm0-32.43H1.3V1.3H37.62Z"/><path id="Path_3009" data-name="Path 3009" class="cls-1" d="M3.89,2.59H3.24a.65.65,0,1,0,0,1.3h.65a.65.65,0,0,0,0-1.3Z"/><path id="Path_3010" data-name="Path 3010" class="cls-1" d="M7.13,2.59H6.49a.65.65,0,0,0,0,1.3h.64a.65.65,0,0,0,0-1.3Z"/><path id="Path_3011" data-name="Path 3011" class="cls-1" d="M10.38,2.59H9.73a.65.65,0,0,0,0,1.3h.65a.65.65,0,1,0,0-1.3Z"/><path id="Path_3012" data-name="Path 3012" class="cls-1" d="M24,10.38h.64a.65.65,0,0,0,0-1.3H24a.65.65,0,1,0,0,1.3Z"/><path id="Path_3013" data-name="Path 3013" class="cls-1" d="M34.37,19.46h-.64a.65.65,0,0,0,0,1.3h.64a.65.65,0,0,0,0-1.3Z"/><path id="Path_3014" data-name="Path 3014" class="cls-1" d="M24,20.75h7.13a.65.65,0,1,0,0-1.3H24a.65.65,0,0,0,0,1.3Z"/><path id="Path_3015" data-name="Path 3015" class="cls-1" d="M24,18.16H34.37a.65.65,0,0,0,0-1.3H24a.65.65,0,0,0,0,1.3Z"/><path id="Path_3016" data-name="Path 3016" class="cls-1" d="M24,15.57H34.37a.65.65,0,1,0,0-1.3H24a.65.65,0,1,0,0,1.3Z"/><path id="Path_3017" data-name="Path 3017" class="cls-1" d="M24,13H34.37a.65.65,0,1,0,0-1.3H24A.65.65,0,1,0,24,13Z"/><path id="Path_3018" data-name="Path 3018" class="cls-1" d="M27.24,10.38h7.13a.65.65,0,1,0,0-1.3H27.24a.65.65,0,1,0,0,1.3Z"/><path id="Path_3019" data-name="Path 3019" class="cls-1" d="M4.54,24.65h.65a.65.65,0,1,0,0-1.3H4.54a.65.65,0,1,0,0,1.3Z"/><path id="Path_3020" data-name="Path 3020" class="cls-1" d="M34.37,33.73h-.64a.65.65,0,0,0,0,1.3h.64a.65.65,0,1,0,0-1.3Z"/><path id="Path_3021" data-name="Path 3021" class="cls-1" d="M4.54,35H31.13a.65.65,0,1,0,0-1.3H4.54a.65.65,0,1,0,0,1.3Z"/><path id="Path_3022" data-name="Path 3022" class="cls-1" d="M4.54,32.43H34.37a.65.65,0,1,0,0-1.3H4.54a.65.65,0,0,0,0,1.3Z"/><path id="Path_3023" data-name="Path 3023" class="cls-1" d="M4.54,29.83H34.37a.65.65,0,0,0,0-1.3H4.54a.65.65,0,1,0,0,1.3Z"/><path id="Path_3024" data-name="Path 3024" class="cls-1" d="M4.54,27.24H34.37a.65.65,0,0,0,0-1.3H4.54a.65.65,0,1,0,0,1.3Z"/><path id="Path_3025" data-name="Path 3025" class="cls-1" d="M34.37,23.35H7.78a.65.65,0,1,0,0,1.3H34.37a.65.65,0,0,0,0-1.3Z"/><path id="Path_3026" data-name="Path 3026" class="cls-1" d="M20.1,9.08H4.54a.65.65,0,0,0-.65.65V20.1a.65.65,0,0,0,.65.65H20.11a.64.64,0,0,0,.64-.64h0V9.73a.65.65,0,0,0-.64-.65ZM5.75,19.45l4-6,4,6Zm9.52,0-.78-1.16L16.21,16l2.6,3.46Zm4.19-1.3-2.73-3.63a.65.65,0,0,0-.52-.26.68.68,0,0,0-.52.26l-2,2.63L10.27,12a.67.67,0,0,0-.94-.14.93.93,0,0,0-.14.14l-4,6V10.37H19.46Z"/><circle id="Ellipse_49" data-name="Ellipse 49" class="cls-1" cx="13.62" cy="12.97" r="1.3"/></g></g></g>
</symbol>

<symbol id="icon-level" viewBox="0 0 38.91 38.92">
<g id="圖層_2" data-name="圖層 2"><g id="圖層_1-2" data-name="圖層 1"><g id="Group_385" data-name="Group 385"><g id="Group_384" data-name="Group 384"><g class="cls-2"><g id="Group_383" data-name="Group 383"><path fill="#fff" id="Path_2992" data-name="Path 2992" class="cls-3" d="M21.94,6.87a1.27,1.27,0,0,0-1.11-.64h-.27V4.75a1.3,1.3,0,0,0,.65-1.12V2.33a1.3,1.3,0,0,0-.65-1.12V1a.65.65,0,1,0-1.3,0H16.34a1,1,0,0,0-1,1,1,1,0,0,0,.28.68l.29.29-.29.28a1,1,0,0,0,0,1.38,1,1,0,0,0,.69.29h2.92v1.3H19a1.3,1.3,0,0,0-1.12.65l-.76,1.35a1.94,1.94,0,0,0-1.84,3.24L.62,37.36A1.3,1.3,0,0,0,1.75,39.3H38.07A1.29,1.29,0,0,0,39.36,38a1.37,1.37,0,0,0-.16-.63ZM17.13,2.33h2.78v1.3H17.12a1,1,0,0,0,0-1.3Zm3.69,5.19,5,8.79-.92,1.19L23.66,16a1.16,1.16,0,0,0-1-.44,1.19,1.19,0,0,0-.94.5l-.3.41-3.1-5.36a1.89,1.89,0,0,0-.15-2.14L19,7.53Zm-.81,11L18.2,15.58a1.19,1.19,0,0,0-1.64-.38,1,1,0,0,0-.3.27L15.05,17l-.84-1,2.23-4,.23,0a1.79,1.79,0,0,0,.68-.13l3.28,5.67Zm-3.34-9a.65.65,0,1,1-.65.65A.65.65,0,0,1,16.67,9.47Zm-3.14,7.72.62.72a1.12,1.12,0,0,0,.92.42,1.16,1.16,0,0,0,.91-.45l1.21-1.5,1.8,2.9a1.19,1.19,0,0,0,1,.56h0a1.18,1.18,0,0,0,1-.5l.36-.51,1,1.7a2,2,0,0,0-.46,1.14L16.3,23.25A1.95,1.95,0,1,0,15.82,26l6.78,5a.88.88,0,0,0-.05.15l-6.1.82a1.94,1.94,0,0,0-3.67.88,2,2,0,0,0,.19.84L8.62,38H1.75Zm10.28,3.95a.65.65,0,1,1-.65.65h0A.65.65,0,0,1,23.81,21.14Zm-8.43,3.24a.65.65,0,1,1-.65-.65h0a.65.65,0,0,1,.65.65Zm-1.3,8.43a.65.65,0,1,1,.65.65h0A.65.65,0,0,1,14.08,32.81ZM10.46,38l3.44-3.44a1.82,1.82,0,0,0,.83.2,2,2,0,0,0,1.9-1.54l6.1-.82a1.94,1.94,0,1,0,.84-2.62,1.07,1.07,0,0,0-.21.13l-6.78-5a2.17,2.17,0,0,0,.08-.43l5.56-1.59a2,2,0,0,0,3.19-2.25,1.93,1.93,0,0,0-2-.79l-1.28-2.2.56-.79,1.21,1.52a1.17,1.17,0,0,0,.93.45,1.21,1.21,0,0,0,.95-.46l.67-.86L38.08,38ZM23.8,31.52a.65.65,0,1,1,.65.64h0a.65.65,0,0,1-.65-.64Z" transform="translate(-0.45 -0.38)"/></g></g></g><path id="Path_2993" data-name="Path 2993" class="cls-3" d="M34.18,36.38a.65.65,0,1,0,1.12-.64h0l-4.93-8.46a.65.65,0,1,0-1.12.66Z" transform="translate(-0.45 -0.38)"/><path id="Path_2994" data-name="Path 2994" class="cls-3" d="M29.16,25.44a.65.65,0,1,1-.65-.65h0a.65.65,0,0,1,.65.65Z" transform="translate(-0.45 -0.38)"/></g></g></g></svg>
</symbol>

<symbol id="icon-notice" viewBox="0 0 38.91 38.93">
<g id="圖層_2" data-name="圖層 2"><g id="圖層_1-2" data-name="圖層 1"><g id="Group_382" data-name="Group 382"><g id="Group_381" data-name="Group 381"><g class="cls-2"><g id="Group_380" data-name="Group 380"><path id="Path_2991" data-name="Path 2991" class="cls-3" d="M25.75,3.89a.65.65,0,0,0-.65.65v.64H21.28a.69.69,0,0,1-.58-.24,2.11,2.11,0,0,0-.39-.4,2.59,2.59,0,1,0-3.66-.26l.08.08A3.7,3.7,0,0,0,16,5L11.77,9.65A2,2,0,0,0,11.21,11a1.9,1.9,0,0,0,.57,1.37,2,2,0,0,0,2.76,0L16,10.83v2.89l-2.45,5.64a2,2,0,0,0,0,1.41,1.25,1.25,0,0,0-.87.49L.72,36.82a1.31,1.31,0,0,0,1,2.09H38.07a1.29,1.29,0,0,0,1.29-1.31,1.31,1.31,0,0,0-.26-.78l-12-15.56a1.26,1.26,0,0,0-.72-.47V9a2,2,0,0,0,.71-.45,1.89,1.89,0,0,0,.52-1.86A2,2,0,0,0,26.4,5.31V4.54a.65.65,0,0,0-.65-.65Zm-7.14-2.6a1.3,1.3,0,1,1-1.3,1.3h0A1.31,1.31,0,0,1,18.61,1.29ZM14.77,19.86l2.49-5.74a.58.58,0,0,0,.06-.26V8.43a.65.65,0,1,0-1.3,0V9l-2.4,2.52a.65.65,0,0,1-.92,0h0a.6.6,0,0,1-.19-.45.71.71,0,0,1,.21-.49l4.19-4.66a2.12,2.12,0,0,1,.84-.58,2.18,2.18,0,0,1,.67-.1h0a1.46,1.46,0,0,1,1.22.51,2,2,0,0,0,1.63.78h4.39a.7.7,0,0,1,.7.49.65.65,0,0,1-.47.79l-.15,0H20.56a.65.65,0,0,0-.65.65h0v5.43a.75.75,0,0,0,.05.26l2.5,5.72a.67.67,0,0,1-.39.87H22a.67.67,0,0,1-.79-.44l-2-4.74a.65.65,0,0,0-.85-.34.62.62,0,0,0-.35.34l-2,4.77a.67.67,0,0,1-.78.41h0a.67.67,0,0,1-.47-.83s0,0,0,0Zm8.9.89a2,2,0,0,0,0-1.41l-2.44-5.62V9.08H25.1V20.75Zm-3.68,0H17.24l1.37-3.27ZM1.75,37.61l5.77-7.5.86,1-2.69,3.5a.65.65,0,1,0,1,.8h0l2.53-3.29.84,1a1.59,1.59,0,0,0,2.46,0l2.26-2.82a.31.31,0,0,1,.26-.11.28.28,0,0,1,.23.13l3.3,5.28a1.62,1.62,0,0,0,1.31.76H20a1.61,1.61,0,0,0,1.3-.67l3.2-4.49A.28.28,0,0,1,24.7,31a.29.29,0,0,1,.25.12L27.22,34a1.62,1.62,0,0,0,1.25.6h0A1.6,1.6,0,0,0,29.74,34l2.78-3.58,5.55,7.22Zm30-8.28-3,3.85a.3.3,0,0,1-.24.11.24.24,0,0,1-.23-.11L26,30.34a1.57,1.57,0,0,0-1.3-.6,1.59,1.59,0,0,0-1.26.67l-3.2,4.49A.26.26,0,0,1,20,35a.29.29,0,0,1-.25-.14l-3.3-5.28a1.59,1.59,0,0,0-2.21-.49,1.44,1.44,0,0,0-.39.35l-2.25,2.81a.33.33,0,0,1-.24.12.28.28,0,0,1-.23-.11l-1-1.2,4.54-5.9a.65.65,0,0,0-1-.8h0L9.2,30.07l-.86-1,5.4-7H26.11Z" transform="translate(-0.46 0.02)"/></g></g></g></g></g></g></svg>
</symbol>

<symbol id="icon-product" viewBox="0 0 38.92 32.43">
<g id="圖層_2" data-name="圖層 2"><g id="圖層_1-2" data-name="圖層 1"><g id="Group_378" data-name="Group 378"><g id="Group_377" data-name="Group 377"><g class="cls-2"><g id="Group_376" data-name="Group 376"><path id="Path_2984" data-name="Path 2984" class="cls-3" d="M33.73,18.81H29.87a12.94,12.94,0,0,1-12.8-11,18.22,18.22,0,0,1-.2-2.66V2.6A2.59,2.59,0,0,0,14.27,0H10.56A3.25,3.25,0,0,0,8.87.48,12.79,12.79,0,0,1,3.08,1.89,2.6,2.6,0,0,0,.65,4.48V26.77A1.33,1.33,0,0,0,0,27.89v3.24a1.3,1.3,0,0,0,1.3,1.3H2.86A1.28,1.28,0,0,0,4,31.75l.65-1.26,1.14,1.44a1.24,1.24,0,0,0,1,.5H8a1.31,1.31,0,0,0,1.16-.7l.65-1.24L11,31.93a1.27,1.27,0,0,0,1,.5h1.23a1.31,1.31,0,0,0,1.16-.7L15,30.48l1.14,1.45a1.3,1.3,0,0,0,1,.5h7.45c.85,0,1.66,0,2.42,0a1.28,1.28,0,0,0,1.11-.71l.57-1.14s0-.05.07-.05a.08.08,0,0,1,.07,0l.9,1.14a1.3,1.3,0,0,0,1.16.49L32.22,32a1.28,1.28,0,0,0,1.05-.85l.44-1.22a.09.09,0,0,1,.07-.06.09.09,0,0,1,.09,0L35,31a1.32,1.32,0,0,0,1.23.32,13.78,13.78,0,0,0,1.46-.46A1.92,1.92,0,0,0,38.92,29V24a5.18,5.18,0,0,0-5.18-5.19ZM37.62,24v.85a38.7,38.7,0,0,1-9,1.58,3.86,3.86,0,0,1,3.8-3.08h5.13a4.62,4.62,0,0,1,.06.65Zm-20-10.89-1.5.94a1.9,1.9,0,0,0-1.2-.43,2,2,0,1,0,1.94,2,1.6,1.6,0,0,0,0-.44l1.52-1a14,14,0,0,0,1.75,2l-1.23,1.45a1.86,1.86,0,0,0-.7-.14,1.95,1.95,0,1,0,1.95,1.95,1.87,1.87,0,0,0-.27-1l1.23-1.44a14.1,14.1,0,0,0,2.69,1.68l-.46,1.38A2,2,0,0,0,23.36,24a2,2,0,0,0,1.18-3.51L25,19.23a14.14,14.14,0,0,0,4.9.87h3.86a3.91,3.91,0,0,1,3.37,1.95H32.43a5.16,5.16,0,0,0-5.13,4.46c-.91,0-1.8.08-2.66.08H13.87A16.94,16.94,0,0,0,2,16V7.77c4.84-.09,7.18-1.19,8.29-2.12a2,2,0,0,1,1.26-.46h4.07A19.61,19.61,0,0,0,15.78,8c.06.39.14.78.23,1.16l-1.37.27A1.95,1.95,0,1,0,14,12.05a1.93,1.93,0,0,0,.93-1.4l1.47-.29a14.59,14.59,0,0,0,1.27,2.75Zm-2.06,2.46a.65.65,0,0,1-1.3,0,.65.65,0,0,1,1.3,0Zm3.24,3.89a.65.65,0,1,1-.65-.65h0a.65.65,0,0,1,.65.65ZM24,22.05a.65.65,0,1,1-.65-.65h0A.65.65,0,0,1,24,22.05ZM12.49,26.59H2V17.36a15.59,15.59,0,0,1,10.53,9.23Zm1.13-16.21A.65.65,0,1,1,13,9.73.65.65,0,0,1,13.62,10.38ZM3.16,3.18a14.06,14.06,0,0,0,6.38-1.6,2.14,2.14,0,0,1,1-.29h3.72a1.3,1.3,0,0,1,1.3,1.3v1.3H11.5a3.34,3.34,0,0,0-2.09.77C8.64,5.31,6.64,6.39,2,6.48v-2a1.31,1.31,0,0,1,1.21-1.3ZM37.62,29a.65.65,0,0,1-.42.61q-.66.24-1.35.42L34.76,29a1.38,1.38,0,0,0-2.27.53l-.44,1.23-1.26.14-.9-1.15a1.37,1.37,0,0,0-2.31.23L27,31.09c-.74,0-1.53,0-2.37,0H17.17L16,29.68a1.27,1.27,0,0,0-1-.5h-.11a1.32,1.32,0,0,0-1,.69l-.66,1.25H12l-1.14-1.44a1.29,1.29,0,0,0-2.16.2L8,31.12H6.8L5.66,29.68a1.26,1.26,0,0,0-1.14-.49,1.24,1.24,0,0,0-1,.68l-.66,1.25H1.3V27.88H24.63a50.86,50.86,0,0,0,13-1.66Z" transform="translate(0 0)"/></g></g></g><path id="Path_2985" data-name="Path 2985" class="cls-3" d="M6.79,9.09a3.25,3.25,0,1,0-.65,6.46h.05l.3,0a3.25,3.25,0,0,0,.3-6.48ZM6.3,14.26a1.94,1.94,0,1,1,1.43-.44A1.94,1.94,0,0,1,6.3,14.26Z" transform="translate(0 0)"/><path id="Path_2986" data-name="Path 2986" class="cls-3" d="M14.92,25.29H20.1a.65.65,0,1,0,0-1.3H14.92a.65.65,0,0,0,0,1.3Z" transform="translate(0 0)"/></g></g></g>
</symbol>

<symbol id="icon-schedule" viewBox="0 0 38.91 43.25">
<g id="Group_407" data-name="Group 407"><path id="Path_3027" data-name="Path 3027" class="cls-1" d="M30.86,21.24h3A1.23,1.23,0,0,0,35.11,20V17a1.24,1.24,0,0,0-1.24-1.24h-3A1.25,1.25,0,0,0,29.62,17v3A1.24,1.24,0,0,0,30.86,21.24Zm0-4.22h3V20h-3Zm0,12.24h3A1.23,1.23,0,0,0,35.11,28V25a1.24,1.24,0,0,0-1.24-1.24h-3A1.25,1.25,0,0,0,29.62,25v3a1.24,1.24,0,0,0,1.23,1.24h0Zm0-4.22h3v3h-3Zm-8.64-3.8h3A1.23,1.23,0,0,0,26.5,20V17a1.24,1.24,0,0,0-1.23-1.24h-3A1.25,1.25,0,0,0,21,17v3a1.24,1.24,0,0,0,1.24,1.24Zm0-4.22h3V20h-3ZM8.05,31.42H5A1.23,1.23,0,0,0,3.8,32.66v3A1.23,1.23,0,0,0,5,36.91h3a1.24,1.24,0,0,0,1.24-1.24v-3a1.25,1.25,0,0,0-1.24-1.24Zm0,4.22h-3v-3H8Zm0-19.89H5A1.23,1.23,0,0,0,3.8,17v3A1.24,1.24,0,0,0,5,21.24h3A1.25,1.25,0,0,0,9.29,20V17a1.24,1.24,0,0,0-1.24-1.24ZM8,20h-3V17H8Zm14.23,9.1h3a1.23,1.23,0,0,0,1.23-1.24v-3a1.24,1.24,0,0,0-1.23-1.24h-3A1.25,1.25,0,0,0,21,24.82v3a1.25,1.25,0,0,0,1.24,1.25h0Zm0-4.22h3V27.8h-3Zm13.46-22H33v-1A1.92,1.92,0,0,0,31.1,0h-.29a1.92,1.92,0,0,0-1.92,1.93v1H10v-1A1.92,1.92,0,0,0,8.1,0H7.8A1.92,1.92,0,0,0,5.88,1.93v1H3.17A3.18,3.18,0,0,0,0,6.06v34a3.17,3.17,0,0,0,3.17,3.17H35.74a3.17,3.17,0,0,0,3.17-3.17v-34A3.17,3.17,0,0,0,35.74,2.9Zm-5.59-1a.66.66,0,0,1,.66-.66h.29a.65.65,0,0,1,.66.66v1H30.15Zm-23,0a.66.66,0,0,1,.66-.66h.29a.65.65,0,0,1,.66.66v1H7.14v-1Zm30.5,38.14a1.9,1.9,0,0,1-1.9,1.9H3.16a1.91,1.91,0,0,1-1.9-1.9h0a3.13,3.13,0,0,0,1.9.64H28.85a3.14,3.14,0,0,0,2.24-.93l6.55-6.55Zm-7.2-1.44a2.74,2.74,0,0,0,.08-.64V33.77A1.46,1.46,0,0,1,32,32.32h4.22a2.73,2.73,0,0,0,.64-.07ZM37.64,12h-27a.63.63,0,0,0,0,1.26h27v16.4a1.44,1.44,0,0,1-1.44,1.45H32a2.71,2.71,0,0,0-2.71,2.71V38a1.44,1.44,0,0,1-1.44,1.45H3.17a1.91,1.91,0,0,1-1.9-1.91V13.22H8.12a.64.64,0,0,0,.64-.63A.64.64,0,0,0,8.12,12H1.26V6.07a1.91,1.91,0,0,1,1.9-1.9H5.87V6A1.94,1.94,0,0,0,7.8,8a.64.64,0,0,0,0-1.27h0A.66.66,0,0,1,7.14,6V4.17H28.89V6A1.92,1.92,0,0,0,30.81,8a.64.64,0,0,0,.61-.66.63.63,0,0,0-.61-.61A.66.66,0,0,1,30.15,6V4.17h5.59a1.91,1.91,0,0,1,1.9,1.9ZM8.05,23.58H5A1.24,1.24,0,0,0,3.8,24.82v3A1.23,1.23,0,0,0,5,29.07h3a1.24,1.24,0,0,0,1.24-1.23v-3a1.24,1.24,0,0,0-1.24-1.23ZM8,27.8h-3V24.85H8Zm5.62-6.56h3A1.25,1.25,0,0,0,17.9,20V17a1.24,1.24,0,0,0-1.24-1.23h-3A1.24,1.24,0,0,0,12.4,17v3a1.25,1.25,0,0,0,1.24,1.24Zm0-4.23h3v3h-3Zm8.61,18.63a.63.63,0,0,0-.68-.58.64.64,0,0,0-.59.61,1.25,1.25,0,0,0,1.24,1.24h3a1.24,1.24,0,0,0,1.23-1.24v-3a1.24,1.24,0,0,0-1.23-1.24h-3A1.25,1.25,0,0,0,21,32.66v.87a.64.64,0,0,0,1.27,0v-.89h3v3Zm-8.64-6.57h3a1.24,1.24,0,0,0,1.24-1.24v-3a1.24,1.24,0,0,0-1.24-1.24h-3a1.25,1.25,0,0,0-1.24,1.24v3a1.25,1.25,0,0,0,1.24,1.25h0Zm0-4.22h3V27.8h-3Zm0,12.06h3a1.25,1.25,0,0,0,1.24-1.24v-3a1.25,1.25,0,0,0-1.24-1.24h-3a1.25,1.25,0,0,0-1.24,1.24v3a1.24,1.24,0,0,0,1.24,1.23Zm0-4.23h3v3h-3Z"/></g></g></g>
</symbol>

<symbol id="icon-weather" viewBox="0 0 38.92 31.9">
<g id="圖層_2" data-name="圖層 2"><g id="圖層_1-2" data-name="圖層 1"><g id="Group_406" data-name="Group 406"><g id="Group_393" data-name="Group 393"><g id="Group_392" data-name="Group 392"><path id="Path_3001" data-name="Path 3001" class="cls-1" d="M17,6.07,14.86,3.9a.7.7,0,0,0-1-.11.71.71,0,0,0-.12,1l0,0,.08.08L16,7.07a.72.72,0,0,0,1-1Z"/></g></g><g id="Group_395" data-name="Group 395"><g id="Group_394" data-name="Group 394"><path id="Path_3002" data-name="Path 3002" class="cls-1" d="M35.17,4a.72.72,0,0,0-1-.09L34.08,4,31.91,6.15a.7.7,0,0,0-.11,1,.71.71,0,0,0,1,.12l0,0a.3.3,0,0,0,.08-.08L35.08,5A.72.72,0,0,0,35.17,4Z"/></g></g><g id="Group_397" data-name="Group 397"><g id="Group_396" data-name="Group 396"><path id="Path_3003" data-name="Path 3003" class="cls-1" d="M22.26,3.57s0,0,0-.06L21.46.56a.71.71,0,0,0-1.38.3h0a.13.13,0,0,0,0,.06l.78,2.94a.71.71,0,1,0,1.39-.29Z"/></g></g><g id="Group_399" data-name="Group 399"><g id="Group_398" data-name="Group 398"><path id="Path_3004" data-name="Path 3004" class="cls-1" d="M32,18.74c-.13-.14-.27-.27-.41-.4l.11-.21a8.07,8.07,0,0,0-3.22-11,7.56,7.56,0,0,0-.91-.43h0a8.12,8.12,0,0,0-10.07,3.53A9.22,9.22,0,0,0,6.1,16.66a9.32,9.32,0,0,0-.34,2.51v.37A6.19,6.19,0,0,0,6.15,31.9H26.54A7.71,7.71,0,0,0,32,18.74ZM22.07,8.05a6.71,6.71,0,0,1,8.7,8.73,6.3,6.3,0,0,1-.34.69v.06a7.75,7.75,0,0,0-6.48-.6,9.18,9.18,0,0,0-2.33-4.18,3.32,3.32,0,0,1,4.11-1.52.71.71,0,0,0,.9-.45.7.7,0,0,0-.38-.86,4.69,4.69,0,0,0-5.73,1.87,9.62,9.62,0,0,0-1.72-1A6.71,6.71,0,0,1,22.07,8.05Zm6,22.26a6.79,6.79,0,0,1-1.48.17H6.18a4.77,4.77,0,0,1-3.37-8.14h0A4.78,4.78,0,0,1,6.17,21H6.5a.71.71,0,0,0,.75-.66.55.55,0,0,0,0-.18c0-.14,0-.28,0-.45v-.49A7.81,7.81,0,0,1,22.72,18a.71.71,0,0,0,.8.6.74.74,0,0,0,.21-.07,6.3,6.3,0,1,1,5.72,11.23,6.43,6.43,0,0,1-1.43.52Z"/></g></g><g id="Group_401" data-name="Group 401"><g id="Group_400" data-name="Group 400"><path id="Path_3005" data-name="Path 3005" class="cls-1" d="M38.89,10.73a.7.7,0,0,0-.82-.48l-3,.78a.7.7,0,0,0-.51.86.71.71,0,0,0,.86.52h0l2.94-.78a.7.7,0,0,0,.47-.88Z"/></g></g><g id="Group_403" data-name="Group 403"><g id="Group_402" data-name="Group 402"><path id="Path_3006" data-name="Path 3006" class="cls-1" d="M38.39,17.66l-2.94-.8a.71.71,0,1,0-.39,1.37L38,19a.71.71,0,1,0,.41-1.36Z"/></g></g><g id="Group_405" data-name="Group 405"><g id="Group_404" data-name="Group 404"><path id="Path_3007" data-name="Path 3007" class="cls-1" d="M28.38.09a.71.71,0,0,0-.88.48l-.8,2.94a.7.7,0,0,0,.48.88h0a.7.7,0,0,0,.88-.48v0L28.87,1A.71.71,0,0,0,28.38.09Z"/></g></g></g></g></g>
</symbol>

<symbol id="icon-arrow-down" viewBox="0 0 24 24">
<path d="M7.406 8.578l4.594 4.594 4.594-4.594 1.406 1.406-6 6-6-6z"></path>
</symbol>


</defs>
</svg>
